# xmcd CD database file generated by Grip 2.94
# 
# Track frame offsets:
#       183
#       13038
#       26380
#       37265
#       48878
#       60733
#       73468
#       84235
#       99333
#       112418
#       121975
#       132123
#       146858
#       158040
#       172843
#       184408
# 
# Disc length: 2615 seconds
# 
# Revision: 3
# Processed by: cddbd v1.4b41PL1 Copyright (c) Steve Scherf et al.
# Submitted via: Grip 2.94
# 
DISCID=e10a3510
DTITLE=Ladia's Dixieband and The Larry Dicksen Banjo Band - Made In Dixieland
DYEAR=1900
DGENRE=
TTITLE0=Natiional Emblem - Ladia's Dixieband
TTITLE1=Back In Berlin - Ladia's Dixieband
TTITLE2=Made In Dixieland - Ladia's Dixieband
TTITLE3=Same Place - Ladia's Dixieband
TTITLE4=Strolling Filou - Ladia's Dixieband
TTITLE5=Moni's Dixie - Ladia's Dixieband
TTITLE6=Shuffle Dixie Boogie - Ladia's Dixieband
TTITLE7=Down By The Riverside - Ladia's Dixieband
TTITLE8=Washington Post - Larry Dicksen Banjo Band
TTITLE9=La Golondrina - Larry Dicksen Banjo Band
TTITLE10=The Latin Dixie - Larry Dicksen Banjo Band
TTITLE11=American Patrol - Larry Dicksen Banjo Band
TTITLE12=Das War Dufte - Larry Dicksen Banjo Band
TTITLE13=The Entertainer - Larry Dicksen Banjo Band
TTITLE14=Sandpaper Dixie - Larry Dicksen Banjo Band
TTITLE15=Dixie Doodle - Larry Dicksen Banjo Band
EXTD=
EXTT0=
EXTT1=
EXTT2=
EXTT3=
EXTT4=
EXTT5=
EXTT6=
EXTT7=
EXTT8=
EXTT9=
EXTT10=
EXTT11=
EXTT12=
EXTT13=
EXTT14=
EXTT15=
PLAYORDER=
